<svg width="60" height="76" viewBox="0 0 48 60" fill="none" xmlns="http://www.w3.org/2000/svg">
        <path d="M0 6C0 2.68629 2.68629 0 6 0H32L48 16V54C48 57.3137 45.3137 60 42 60H6C2.68629 60 0 57.3137 0 54V6Z" fill="#80b3ff"/>
        <path d="M32 0V10C32 13.3137 34.6863 16 38 16H48L32 0Z" fill="#b3d1ff"/>
        <rect x="10" y="24" width="28" height="4" rx="2" fill="white"/>
        <rect x="10" y="34" width="28" height="4" rx="2" fill="white"/>
        <rect x="10" y="44" width="28" height="4" rx="2" fill="white"/>
        <rect x="10" y="54" width="18" height="4" rx="2" fill="white"/>
      </svg>